<?xml version="1.0" encoding="utf-8" standalone="no"?>
<!DOCTYPE svg PUBLIC "-//W3C//DTD SVG 1.1//EN"
  "http://www.w3.org/Graphics/SVG/1.1/DTD/svg11.dtd">
<!-- Created with matplotlib (http://matplotlib.org/) -->
<svg height="1296pt" version="1.1" viewBox="0 0 2880 1296" width="2880pt" xmlns="http://www.w3.org/2000/svg" xmlns:xlink="http://www.w3.org/1999/xlink">
 <defs>
  <style type="text/css">
*{stroke-linecap:butt;stroke-linejoin:round;}
  </style>
 </defs>
 <g id="figure_1">
  <g id="patch_1">
   <path d="M 0 1296 
L 2880 1296 
L 2880 0 
L 0 0 
z
" style="fill:none;opacity:0;"/>
  </g>
  <g id="axes_1">
   <g id="LineCollection_1">
    <path clip-path="url(#pa31cbf171d)" d="M 2630.082645 647.999997 
L 2589.531546 509.392777 
" style="fill:none;stroke:#000000;stroke-width:0.1;"/>
    <path clip-path="url(#pa31cbf171d)" d="M 2589.531546 509.392777 
L 2470.641784 380.231405 
" style="fill:none;stroke:#000000;stroke-width:0.1;"/>
    <path clip-path="url(#pa31cbf171d)" d="M 2589.531546 509.392777 
L 2281.515494 269.318028 
" style="fill:none;stroke:#000000;stroke-width:0.1;"/>
    <path clip-path="url(#pa31cbf171d)" d="M 2589.531546 509.392777 
L 2035.041287 184.211165 
" style="fill:none;stroke:#000000;stroke-width:0.1;"/>
    <path clip-path="url(#pa31cbf171d)" d="M 2589.531546 509.392777 
L 1748.016087 130.710804 
" style="fill:none;stroke:#000000;stroke-width:0.1;"/>
    <path clip-path="url(#pa31cbf171d)" d="M 2589.531546 509.392777 
L 1439.999958 112.46281 
" style="fill:none;stroke:#000000;stroke-width:0.1;"/>
    <path clip-path="url(#pa31cbf171d)" d="M 2589.531546 509.392777 
L 1131.983948 130.710804 
" style="fill:none;stroke:#000000;stroke-width:0.1;"/>
    <path clip-path="url(#pa31cbf171d)" d="M 2589.531546 509.392777 
L 844.958607 184.211197 
" style="fill:none;stroke:#000000;stroke-width:0.1;"/>
    <path clip-path="url(#pa31cbf171d)" d="M 2589.531546 509.392777 
L 598.484506 269.318028 
" style="fill:none;stroke:#000000;stroke-width:0.1;"/>
    <path clip-path="url(#pa31cbf171d)" d="M 2589.531546 509.392777 
L 409.358216 380.231373 
" style="fill:none;stroke:#000000;stroke-width:0.1;"/>
    <path clip-path="url(#pa31cbf171d)" d="M 2589.531546 509.392777 
L 290.468454 509.392729 
" style="fill:none;stroke:#000000;stroke-width:0.1;"/>
    <path clip-path="url(#pa31cbf171d)" d="M 2589.531546 509.392777 
L 249.917355 648.000043 
" style="fill:none;stroke:#000000;stroke-width:0.1;"/>
    <path clip-path="url(#pa31cbf171d)" d="M 2589.531546 509.392777 
L 290.468454 786.607239 
" style="fill:none;stroke:#000000;stroke-width:0.1;"/>
    <path clip-path="url(#pa31cbf171d)" d="M 2589.531546 509.392777 
L 409.358216 915.768579 
" style="fill:none;stroke:#000000;stroke-width:0.1;"/>
    <path clip-path="url(#pa31cbf171d)" d="M 2589.531546 509.392777 
L 598.484435 1026.68194 
" style="fill:none;stroke:#000000;stroke-width:0.1;"/>
    <path clip-path="url(#pa31cbf171d)" d="M 2589.531546 509.392777 
L 844.958784 1111.788835 
" style="fill:none;stroke:#000000;stroke-width:0.1;"/>
    <path clip-path="url(#pa31cbf171d)" d="M 2589.531546 509.392777 
L 1131.984019 1165.289227 
" style="fill:none;stroke:#000000;stroke-width:0.1;"/>
    <path clip-path="url(#pa31cbf171d)" d="M 2589.531546 509.392777 
L 1440.000024 1183.53719 
" style="fill:none;stroke:#000000;stroke-width:0.1;"/>
    <path clip-path="url(#pa31cbf171d)" d="M 2589.531546 509.392777 
L 1748.016016 1165.289196 
" style="fill:none;stroke:#000000;stroke-width:0.1;"/>
    <path clip-path="url(#pa31cbf171d)" d="M 2589.531546 509.392777 
L 2035.041216 1111.788835 
" style="fill:none;stroke:#000000;stroke-width:0.1;"/>
    <path clip-path="url(#pa31cbf171d)" d="M 2589.531546 509.392777 
L 2281.515352 1026.682036 
" style="fill:none;stroke:#000000;stroke-width:0.1;"/>
    <path clip-path="url(#pa31cbf171d)" d="M 2589.531546 509.392777 
L 2470.641713 915.768691 
" style="fill:none;stroke:#000000;stroke-width:0.1;"/>
    <path clip-path="url(#pa31cbf171d)" d="M 2589.531546 509.392777 
L 2589.531617 786.607112 
" style="fill:none;stroke:#000000;stroke-width:0.1;"/>
   </g>
   <g id="PathCollection_1">
    <defs>
     <path d="M 0 0.353553 
C 0.093763 0.353553 0.183699 0.316301 0.25 0.25 
C 0.316301 0.183699 0.353553 0.093763 0.353553 0 
C 0.353553 -0.093763 0.316301 -0.183699 0.25 -0.25 
C 0.183699 -0.316301 0.093763 -0.353553 0 -0.353553 
C -0.093763 -0.353553 -0.183699 -0.316301 -0.25 -0.25 
C -0.316301 -0.183699 -0.353553 -0.093763 -0.353553 0 
C -0.353553 0.093763 -0.316301 0.183699 -0.25 0.25 
C -0.183699 0.316301 -0.093763 0.353553 0 0.353553 
z
" id="mcb3e26cb36" style="stroke:#ff0000;"/>
    </defs>
    <g clip-path="url(#pa31cbf171d)">
     <use style="fill:#ff0000;stroke:#ff0000;" x="2630.082645" xlink:href="#mcb3e26cb36" y="647.999997"/>
     <use style="fill:#ff0000;stroke:#ff0000;" x="2589.531546" xlink:href="#mcb3e26cb36" y="509.392777"/>
     <use style="fill:#ff0000;stroke:#ff0000;" x="2470.641784" xlink:href="#mcb3e26cb36" y="380.231405"/>
     <use style="fill:#ff0000;stroke:#ff0000;" x="2281.515494" xlink:href="#mcb3e26cb36" y="269.318028"/>
     <use style="fill:#ff0000;stroke:#ff0000;" x="2035.041287" xlink:href="#mcb3e26cb36" y="184.211165"/>
     <use style="fill:#ff0000;stroke:#ff0000;" x="1748.016087" xlink:href="#mcb3e26cb36" y="130.710804"/>
     <use style="fill:#ff0000;stroke:#ff0000;" x="1439.999958" xlink:href="#mcb3e26cb36" y="112.46281"/>
     <use style="fill:#ff0000;stroke:#ff0000;" x="1131.983948" xlink:href="#mcb3e26cb36" y="130.710804"/>
     <use style="fill:#ff0000;stroke:#ff0000;" x="844.958607" xlink:href="#mcb3e26cb36" y="184.211197"/>
     <use style="fill:#ff0000;stroke:#ff0000;" x="598.484506" xlink:href="#mcb3e26cb36" y="269.318028"/>
     <use style="fill:#ff0000;stroke:#ff0000;" x="409.358216" xlink:href="#mcb3e26cb36" y="380.231373"/>
     <use style="fill:#ff0000;stroke:#ff0000;" x="290.468454" xlink:href="#mcb3e26cb36" y="509.392729"/>
     <use style="fill:#ff0000;stroke:#ff0000;" x="249.917355" xlink:href="#mcb3e26cb36" y="648.000043"/>
     <use style="fill:#ff0000;stroke:#ff0000;" x="290.468454" xlink:href="#mcb3e26cb36" y="786.607239"/>
     <use style="fill:#ff0000;stroke:#ff0000;" x="409.358216" xlink:href="#mcb3e26cb36" y="915.768579"/>
     <use style="fill:#ff0000;stroke:#ff0000;" x="598.484435" xlink:href="#mcb3e26cb36" y="1026.68194"/>
     <use style="fill:#ff0000;stroke:#ff0000;" x="844.958784" xlink:href="#mcb3e26cb36" y="1111.788835"/>
     <use style="fill:#ff0000;stroke:#ff0000;" x="1131.984019" xlink:href="#mcb3e26cb36" y="1165.289227"/>
     <use style="fill:#ff0000;stroke:#ff0000;" x="1440.000024" xlink:href="#mcb3e26cb36" y="1183.53719"/>
     <use style="fill:#ff0000;stroke:#ff0000;" x="1748.016016" xlink:href="#mcb3e26cb36" y="1165.289196"/>
     <use style="fill:#ff0000;stroke:#ff0000;" x="2035.041216" xlink:href="#mcb3e26cb36" y="1111.788835"/>
     <use style="fill:#ff0000;stroke:#ff0000;" x="2281.515352" xlink:href="#mcb3e26cb36" y="1026.682036"/>
     <use style="fill:#ff0000;stroke:#ff0000;" x="2470.641713" xlink:href="#mcb3e26cb36" y="915.768691"/>
     <use style="fill:#ff0000;stroke:#ff0000;" x="2589.531617" xlink:href="#mcb3e26cb36" y="786.607112"/>
    </g>
   </g>
  </g>
 </g>
 <defs>
  <clipPath id="pa31cbf171d">
   <rect height="1296" width="2880" x="0" y="0"/>
  </clipPath>
 </defs>
</svg>
